<svg width="134" height="15" viewBox="0 0 134 15" fill="none" xmlns="http://www.w3.org/2000/svg">
<g clip-path="url(#clip0_0_108)">
<path d="M15.1323 14.6993C13.8496 15.0333 13.0495 14.3157 12.2906 13.0124C8.85088 7.11042 8.80964 7.13516 12.4226 1.52603C13.1196 0.441318 16.5841 -0.408301 17.5863 0.268095C18.2379 0.709402 17.6853 1.10534 17.4873 1.46416C16.7284 2.84582 16.0355 4.2811 15.1199 5.55141C14.1672 6.87945 14.2579 7.99716 15.1364 9.28396C15.9077 10.4099 16.4603 11.6843 17.2192 12.8227C18.1307 14.1961 18.1018 14.922 16.1964 14.7034C15.9242 14.6745 15.6478 14.6993 15.1323 14.6993Z" fill="url(#paint0_linear_0_108)"/>
<path d="M54.586 14.6745C52.7342 15.1199 52.0206 13.9445 51.0019 12.6742C48.1231 9.06948 48.0613 5.78236 51.0349 2.19004C52.4496 0.482549 54.0045 -0.387692 56.2192 0.185595C57.1307 0.420684 56.8544 0.861991 56.5616 1.36929C55.6748 2.9118 54.8335 4.47906 53.8849 5.98033C53.2662 6.9578 53.1837 7.79093 53.8684 8.79315C54.6396 9.9191 55.2624 11.144 55.914 12.3442C56.2646 12.9876 57.1431 13.598 56.7967 14.3033C56.3677 15.1653 55.3119 14.5013 54.586 14.6745Z" fill="url(#paint1_linear_0_108)"/>
<path d="M44.3452 14.7033C43.0089 15.0704 42.3613 13.9981 41.3921 12.8886C38.0802 9.08596 38.4968 5.572 41.5035 1.8807C42.5799 0.565023 45.0381 -0.433074 46.6301 0.202079C47.5457 0.569147 46.9559 1.09294 46.7332 1.50125C46.0073 2.82105 45.3226 4.18209 44.4483 5.4029C43.4914 6.7392 43.3347 7.88577 44.374 9.27568C45.2278 10.4181 45.7433 11.8122 46.5599 12.9876C47.657 14.5714 46.9023 14.8023 45.4752 14.7033C45.2072 14.6869 44.9308 14.7033 44.3452 14.7033Z" fill="url(#paint2_linear_0_108)"/>
<path d="M24.9854 14.6786C23.4676 15.1364 22.6675 14.1342 21.8633 12.7525C18.7452 7.40322 18.7081 7.42797 21.8715 2.1364C22.9191 0.387673 25.1009 -0.404205 27.0476 0.197952C27.9879 0.486658 27.5508 0.981582 27.295 1.43114C26.4496 2.92003 25.6412 4.4378 24.6967 5.86071C24.0121 6.89592 23.8883 7.74967 24.6348 8.82613C25.5298 10.1171 26.2103 11.5565 27.0435 12.8886C27.8436 14.1631 27.8807 14.9137 26.0412 14.6786C25.7732 14.6497 25.4968 14.6786 24.9854 14.6786Z" fill="url(#paint3_linear_0_108)"/>
<path d="M34.9911 14.6868C33.2135 15.0993 32.5165 13.9527 31.5597 12.7525C28.7386 9.20143 28.4953 5.87307 31.4359 2.23125C32.7887 0.552637 34.6859 -0.420714 36.8059 0.20619C37.804 0.49902 37.2678 1.01044 37.0409 1.41875C36.1171 3.09325 35.1809 4.76361 34.191 6.39686C33.7456 7.131 33.7291 7.71666 34.1951 8.46317C34.9911 9.73347 35.6593 11.0821 36.3934 12.3896C36.7522 13.0288 37.606 13.6887 37.2389 14.3486C36.7894 15.1611 35.7253 14.4394 34.9911 14.6868Z" fill="url(#paint4_linear_0_108)"/>
<path d="M5.47305 0.160826C6.22781 0.160826 6.57013 0.177324 6.91245 0.156702C8.06315 0.0948363 8.47146 0.387666 7.74145 1.53424C6.82172 2.97777 6.05871 4.52028 5.15135 5.97206C4.49145 7.02377 4.50795 7.91463 5.21734 8.96635C6.17007 10.3851 6.9207 11.9359 7.81156 13.4C8.44259 14.4353 8.0549 14.6497 7.01144 14.7033C4.87089 14.8188 3.25826 14.6126 2.02095 12.27C-0.610391 7.27536 -0.775366 7.39909 2.13231 2.49522C3.0108 1.01457 3.75731 -0.457829 5.47305 0.160826Z" fill="url(#paint5_linear_0_108)"/>
</g>
<line x1="64.625" y1="6.55671e-08" x2="64.625" y2="15" stroke="black" stroke-width="3"/>
<line x1="109.625" y1="6.55671e-08" x2="109.625" y2="15" stroke="black" stroke-width="3"/>
<line x1="87.125" y1="6.55671e-08" x2="87.125" y2="15" stroke="black" stroke-width="3"/>
<line x1="120.875" y1="6.55671e-08" x2="120.875" y2="15" stroke="black" stroke-width="3"/>
<line x1="75.875" y1="6.55671e-08" x2="75.875" y2="15" stroke="black" stroke-width="3"/>
<line x1="98.375" y1="6.55671e-08" x2="98.375" y2="15" stroke="black" stroke-width="3"/>
<line x1="126.5" y1="6.55671e-08" x2="126.5" y2="15" stroke="black" stroke-width="3"/>
<line x1="70.25" y1="6.55671e-08" x2="70.25" y2="15" stroke="black" stroke-width="3"/>
<line x1="92.75" y1="6.55671e-08" x2="92.75" y2="15" stroke="black" stroke-width="3"/>
<line x1="81.5" y1="6.55671e-08" x2="81.5" y2="15" stroke="black" stroke-width="3"/>
<line x1="115.25" y1="6.55671e-08" x2="115.25" y2="15" stroke="black" stroke-width="3"/>
<line x1="104" y1="6.55671e-08" x2="104" y2="15" stroke="black" stroke-width="3"/>
<line x1="132.125" y1="6.55671e-08" x2="132.125" y2="15" stroke="black" stroke-width="3"/>
<defs>
<linearGradient id="paint0_linear_0_108" x1="13.8033" y1="0.0267334" x2="13.8033" y2="14.7808" gradientUnits="userSpaceOnUse">
<stop stop-color="#569DE0"/>
<stop offset="1" stop-color="#0093A7" stop-opacity="0.3"/>
</linearGradient>
<linearGradient id="paint1_linear_0_108" x1="52.8499" y1="0.00976562" x2="52.8499" y2="14.7707" gradientUnits="userSpaceOnUse">
<stop stop-color="#569DE0"/>
<stop offset="1" stop-color="#0093A7" stop-opacity="0.3"/>
</linearGradient>
<linearGradient id="paint2_linear_0_108" x1="43.1002" y1="0.00579834" x2="43.1002" y2="14.7768" gradientUnits="userSpaceOnUse">
<stop stop-color="#569DE0"/>
<stop offset="1" stop-color="#0093A7" stop-opacity="0.3"/>
</linearGradient>
<linearGradient id="paint3_linear_0_108" x1="23.5672" y1="-0.00177002" x2="23.5672" y2="14.7908" gradientUnits="userSpaceOnUse">
<stop stop-color="#569DE0"/>
<stop offset="1" stop-color="#0093A7" stop-opacity="0.3"/>
</linearGradient>
<linearGradient id="paint4_linear_0_108" x1="33.3621" y1="0.0146484" x2="33.3621" y2="14.7725" gradientUnits="userSpaceOnUse">
<stop stop-color="#569DE0"/>
<stop offset="1" stop-color="#0093A7" stop-opacity="0.3"/>
</linearGradient>
<linearGradient id="paint5_linear_0_108" x1="4.05798" y1="0.0159302" x2="4.05798" y2="14.7281" gradientUnits="userSpaceOnUse">
<stop stop-color="#569DE0"/>
<stop offset="1" stop-color="#0093A7" stop-opacity="0.3"/>
</linearGradient>
<clipPath id="clip0_0_108">
<rect width="56.875" height="14.79" fill="white"/>
</clipPath>
</defs>
</svg>
