<svg width="22" height="15" viewBox="0 0 22 15" fill="none" xmlns="http://www.w3.org/2000/svg">
<path d="M0 1.93548C0 0.866546 0.866545 0 1.93548 0H20.0645C21.1335 0 22 0.866546 22 1.93548C22 3.00442 21.1335 3.87097 20.0645 3.87097H1.93548C0.866544 3.87097 0 3.00442 0 1.93548Z" fill="#D9D9D9"/>
<path d="M0 7.74193C0 6.673 0.866545 5.80645 1.93548 5.80645H20.0645C21.1335 5.80645 22 6.673 22 7.74193C22 8.81087 21.1335 9.67742 20.0645 9.67742H1.93548C0.866544 9.67742 0 8.81087 0 7.74193Z" fill="#D9D9D9"/>
<path d="M0 13.0645C0 11.9956 0.866546 11.129 1.93549 11.129H20.0645C21.1335 11.129 22 11.9956 22 13.0645C22 14.1335 21.1335 15 20.0645 15H1.93549C0.866547 15 0 14.1335 0 13.0645Z" fill="#D9D9D9"/>
</svg>
